<svg id="Layer_1" data-name="Layer 1" xmlns="http://www.w3.org/2000/svg" viewBox="0 0 112.99 51.08"><defs><style>.cls-1{fill:#fff;}</style></defs><title>KdG_White_Loader</title><polygon class="cls-1" points="9.57 29.82 30.28 49.9 30.43 50.04 34.04 46.49 13.19 26.18 9.57 29.82"/><polygon class="cls-1" points="30.95 4.91 27.22 1.41 9.59 20.12 13.25 23.55 30.95 4.91"/><rect class="cls-1" width="5.06" height="50.28"/><polygon class="cls-1" points="90 26.04 90 31.17 107.9 31.17 107.9 49.93 112.99 49.93 112.99 26.05 89.99 26.05 90 26.04"/><path class="cls-1" d="M101.92,45.27a20.5,20.5,0,0,1-2.07.11h0A18.84,18.84,0,0,1,97.77,7.82H98l-.62-5.2h-.21A24,24,0,0,0,99,50.55h.93a19.43,19.43,0,0,0,2.53-.17h.21l-.54-5.13Z"/><path class="cls-1" d="M66.21.82V.63h0L61.14.82l1.38,27.73a13.82,13.82,0,1,0,.54,10.87l.61,11.66,5-.26ZM50.61,43.3a5.81,5.81,0,0,1-.59,0,8.71,8.71,0,1,1,0-17.41h.3a8.71,8.71,0,0,1,.29,17.41Z"/></svg>
