<svg id="Layer_1" data-name="Layer 1" xmlns="http://www.w3.org/2000/svg" viewBox="0 0 239.33 54.64"><defs><style>.cls-1{fill:#fff;}</style></defs><title>KdG_H_Closed_White</title><path class="cls-1" d="M9.9,30L30.61,50.08l0.15,0.14,3.61-3.55L13.52,26.36ZM31.28,5.09l-3.73-3.5L9.92,20.3l3.66,3.43ZM0.33,50.46H5.39V0.18H0.33V50.46Zm90-24.24v5.13h17.9l0,18.76h5.09V26.23h-23Zm11.92,19.23a19.17,19.17,0,0,1-2.07.11h0A18.84,18.84,0,0,1,98.1,8l0.21,0-0.62-5.2-0.21,0a24,24,0,0,0,1.86,47.93l0.93,0a20.35,20.35,0,0,0,2.53-.17l0.21,0-0.54-5.13ZM66.53,0.81L61.47,1l1.38,27.73a13.83,13.83,0,1,0,.54,10.87L64,51.26,69,51,66.54,1V0.81ZM50.35,43.48a8.7,8.7,0,1,1,0-17.41A8.71,8.71,0,1,1,50.35,43.48Z" transform="translate(-0.33 -0.18)"/><path class="cls-1" d="M133.73,32.54l-4.6-5.45-1.22,1.38v4.07h-1.51V20.42h1.51v6.25l5.36-6.25h1.89l-5.05,5.74,5.5,6.38h-1.89Z" transform="translate(-0.33 -0.18)"/><path class="cls-1" d="M142.45,32.54v-1a3.77,3.77,0,0,1-2.91,1.22,2.92,2.92,0,0,1-3.05-2.91A2.85,2.85,0,0,1,139.54,27a3.72,3.72,0,0,1,2.91,1.18V26.56a1.93,1.93,0,0,0-2.22-1.84,3.43,3.43,0,0,0-2.69,1.22L136.91,25a4.59,4.59,0,0,1,3.51-1.45c1.87,0,3.4.84,3.4,3v6h-1.36Zm0-1.85V29a3,3,0,0,0-2.4-1.07,1.93,1.93,0,1,0,0,3.83A2.93,2.93,0,0,0,142.45,30.69Z" transform="translate(-0.33 -0.18)"/><path class="cls-1" d="M146.56,32.54V23.77h1.36v1.4a3.78,3.78,0,0,1,2.92-1.6V25a4.58,4.58,0,0,0-.53,0,3.21,3.21,0,0,0-2.4,1.4v6.21h-1.36Z" transform="translate(-0.33 -0.18)"/><path class="cls-1" d="M152,28.14a4.39,4.39,0,0,1,4.32-4.6c2.65,0,4.21,2.07,4.21,4.7V28.6H153.5a3.08,3.08,0,0,0,3.14,3,3.82,3.82,0,0,0,2.73-1.13L160,31.4a4.84,4.84,0,0,1-3.49,1.36A4.36,4.36,0,0,1,152,28.14Zm4.31-3.47a2.92,2.92,0,0,0-2.87,2.91h5.76A2.84,2.84,0,0,0,156.35,24.67Z" transform="translate(-0.33 -0.18)"/><path class="cls-1" d="M162.78,32.54V20.42h1.36V32.54h-1.36Z" transform="translate(-0.33 -0.18)"/><path class="cls-1" d="M177.93,32.54V31.23a3.69,3.69,0,0,1-3,1.53c-2.29,0-3.91-1.74-3.91-4.6s1.62-4.61,3.91-4.61a3.67,3.67,0,0,1,3,1.54V20.42h1.36V32.54h-1.36Zm0-2.4v-4a3.26,3.26,0,0,0-2.62-1.42c-1.78,0-2.83,1.45-2.83,3.4s1.05,3.38,2.83,3.38A3.24,3.24,0,0,0,177.93,30.14Z" transform="translate(-0.33 -0.18)"/><path class="cls-1" d="M181.51,28.14a4.39,4.39,0,0,1,4.32-4.6c2.65,0,4.21,2.07,4.21,4.7V28.6H183a3.08,3.08,0,0,0,3.14,3,3.82,3.82,0,0,0,2.73-1.13l0.65,0.89A4.84,4.84,0,0,1,186,32.76,4.36,4.36,0,0,1,181.51,28.14Zm4.31-3.47a2.92,2.92,0,0,0-2.87,2.91h5.76A2.84,2.84,0,0,0,185.82,24.67Z" transform="translate(-0.33 -0.18)"/><path class="cls-1" d="M196.52,26.49a6.05,6.05,0,0,1,6.23-6.27,5.76,5.76,0,0,1,4.71,2.25l-1.2.76a4.47,4.47,0,0,0-3.51-1.67,4.64,4.64,0,0,0-4.67,4.92,4.66,4.66,0,0,0,4.67,4.92A4.79,4.79,0,0,0,206,30.11V27.65h-4.18V26.31h5.67v4.36a6.26,6.26,0,0,1-4.76,2.11A6.08,6.08,0,0,1,196.52,26.49Z" transform="translate(-0.33 -0.18)"/><path class="cls-1" d="M209.91,32.54V23.77h1.36v1.4a3.78,3.78,0,0,1,2.92-1.6V25a4.58,4.58,0,0,0-.53,0,3.21,3.21,0,0,0-2.4,1.4v6.21h-1.36Z" transform="translate(-0.33 -0.18)"/><path class="cls-1" d="M215.39,28.14a4.35,4.35,0,1,1,8.68,0A4.35,4.35,0,1,1,215.39,28.14Zm7.25,0c0-1.78-1-3.38-2.91-3.38s-2.91,1.6-2.91,3.38,1,3.4,2.91,3.4S222.64,29.94,222.64,28.14Z" transform="translate(-0.33 -0.18)"/><path class="cls-1" d="M226.57,30.71V25h-1.45v-1.2h1.45v-2.4h1.38v2.4h1.78V25h-1.78v5.45a0.94,0.94,0,0,0,.87,1.13,1.29,1.29,0,0,0,.93-0.38l0.4,1a2.21,2.21,0,0,1-1.62.56A1.8,1.8,0,0,1,226.57,30.71Z" transform="translate(-0.33 -0.18)"/><path class="cls-1" d="M231.13,28.14a4.39,4.39,0,0,1,4.32-4.6c2.65,0,4.21,2.07,4.21,4.7V28.6h-7.09a3.08,3.08,0,0,0,3.14,3,3.82,3.82,0,0,0,2.73-1.13l0.65,0.89a4.84,4.84,0,0,1-3.49,1.36A4.36,4.36,0,0,1,231.13,28.14Zm4.31-3.47a2.92,2.92,0,0,0-2.87,2.91h5.76A2.84,2.84,0,0,0,235.43,24.67Z" transform="translate(-0.33 -0.18)"/><path class="cls-1" d="M135,51.26V45.7h-7.09v5.56h-1.51V39.14h1.51v5.21H135V39.14h1.51V51.26H135Z" transform="translate(-0.33 -0.18)"/><path class="cls-1" d="M138.78,46.86a4.35,4.35,0,1,1,8.68,0A4.35,4.35,0,1,1,138.78,46.86Zm7.25,0c0-1.78-1-3.38-2.91-3.38s-2.91,1.6-2.91,3.38,1,3.4,2.91,3.4S146,48.66,146,46.86Z" transform="translate(-0.33 -0.18)"/><path class="cls-1" d="M149.66,53.49l0.69-1a3.39,3.39,0,0,0,2.85,1.18c1.45,0,2.83-.71,2.83-2.56V49.8a3.73,3.73,0,0,1-3,1.56c-2.29,0-3.91-1.71-3.91-4.54s1.6-4.56,3.91-4.56a3.67,3.67,0,0,1,3,1.54V42.48h1.36v8.65c0,2.78-2.05,3.69-4.2,3.69A4.48,4.48,0,0,1,149.66,53.49ZM156,48.73V44.88a3.32,3.32,0,0,0-2.62-1.4c-1.78,0-2.83,1.4-2.83,3.34s1.05,3.32,2.83,3.32A3.29,3.29,0,0,0,156,48.73Z" transform="translate(-0.33 -0.18)"/><path class="cls-1" d="M159.62,46.86a4.39,4.39,0,0,1,4.32-4.6c2.65,0,4.21,2.07,4.21,4.7v0.35h-7.09a3.08,3.08,0,0,0,3.14,3,3.82,3.82,0,0,0,2.72-1.13l0.65,0.89a4.84,4.84,0,0,1-3.49,1.36A4.36,4.36,0,0,1,159.62,46.86Zm4.31-3.47a2.92,2.92,0,0,0-2.87,2.91h5.76A2.84,2.84,0,0,0,163.93,43.39Z" transform="translate(-0.33 -0.18)"/><path class="cls-1" d="M169.61,50.1l0.69-1a4,4,0,0,0,2.89,1.25c1.34,0,2.09-.64,2.09-1.51,0-2.13-5.43-.82-5.43-4.07,0-1.38,1.16-2.53,3.25-2.53a4.38,4.38,0,0,1,3.25,1.27l-0.64.94a3.39,3.39,0,0,0-2.62-1.11c-1.2,0-1.94.6-1.94,1.38,0,1.91,5.43.65,5.43,4.07,0,1.47-1.18,2.65-3.43,2.65A4.71,4.71,0,0,1,169.61,50.1Z" transform="translate(-0.33 -0.18)"/><path class="cls-1" d="M178.3,46.86a4.33,4.33,0,0,1,4.38-4.6,3.76,3.76,0,0,1,3.22,1.53l-0.91.82a2.58,2.58,0,0,0-2.23-1.13,3.07,3.07,0,0,0-3,3.38c0,1.94,1.18,3.4,3,3.4A2.65,2.65,0,0,0,185,49.11L185.89,50a3.76,3.76,0,0,1-3.22,1.53A4.35,4.35,0,0,1,178.3,46.86Z" transform="translate(-0.33 -0.18)"/><path class="cls-1" d="M193.76,51.26V45.48a1.71,1.71,0,0,0-2-2,3.38,3.38,0,0,0-2.58,1.36v6.41h-1.36V39.14h1.36v4.61a4.22,4.22,0,0,1,3.12-1.49,2.47,2.47,0,0,1,2.8,2.8v6.2h-1.36Z" transform="translate(-0.33 -0.18)"/><path class="cls-1" d="M197.34,46.86a4.35,4.35,0,1,1,8.68,0A4.35,4.35,0,1,1,197.34,46.86Zm7.25,0c0-1.78-1-3.38-2.91-3.38s-2.91,1.6-2.91,3.38,1,3.4,2.91,3.4S204.59,48.66,204.59,46.86Z" transform="translate(-0.33 -0.18)"/><path class="cls-1" d="M207.73,46.86a4.35,4.35,0,1,1,8.68,0A4.35,4.35,0,1,1,207.73,46.86Zm7.25,0c0-1.78-1-3.38-2.91-3.38s-2.91,1.6-2.91,3.38,1,3.4,2.91,3.4S215,48.66,215,46.86Z" transform="translate(-0.33 -0.18)"/><path class="cls-1" d="M218.63,51.26V39.14H220V51.26h-1.36Z" transform="translate(-0.33 -0.18)"/></svg>